<svg width="50" height="50" viewBox="0 0 50 50" fill="none" xmlns="http://www.w3.org/2000/svg">
<path d="M49.9714 8.22448C50.0095 7.75524 50.0095 7.28369 49.9714 6.81445C49.6996 4.88891 48.729 3.13063 47.2444 1.87449C45.7599 0.618355 43.8652 -0.0478804 41.9212 0.00268041H8.13054C7.34431 0.0214809 6.57005 0.130866 5.80775 0.330835C4.10108 0.798926 2.60113 1.82673 1.54856 3.24934C0.495984 4.67194 -0.0481888 6.40688 0.00335151 8.17577V41.6962C-0.00519443 42.385 0.0623184 43.0661 0.20589 43.7395C0.601454 45.5605 1.62435 47.1846 3.09584 48.328C4.56732 49.4714 6.39382 50.0614 8.25616 49.9949H41.7417C42.7379 50.0036 43.7282 49.8415 44.6695 49.5155C46.2462 48.9876 47.6119 47.9678 48.5659 46.606C49.5198 45.2441 50.0116 43.6122 49.9689 41.95C49.9945 30.6236 49.9714 19.4253 49.9714 8.22448ZM41.4417 36.2048C40.6367 36.6662 40.0676 36.8201 39.1933 37.1303C39.0123 37.1759 38.8447 37.2638 38.7043 37.3868C38.5639 37.5098 38.4547 37.6644 38.3857 37.8378C38.1981 38.36 37.8566 38.813 37.4062 39.1371C36.9558 39.4612 36.4177 39.641 35.863 39.6529L33.7683 39.7811C32.6238 39.9424 31.534 40.3739 30.5893 41.0399C29.2114 41.949 27.6271 42.4971 25.9821 42.6337C24.337 42.7704 22.684 42.4912 21.1751 41.8218C20.5944 41.5954 20.0434 41.2993 19.5342 40.9399C18.2498 40.0869 16.7353 39.6468 15.1938 39.6786C14.7273 39.6866 14.2613 39.6436 13.8042 39.5504C13.3534 39.4782 12.9305 39.2858 12.5799 38.9934C12.2293 38.7011 11.9641 38.3196 11.8121 37.8891C11.7513 37.6898 11.6365 37.5112 11.4803 37.3732C11.3242 37.2352 11.1329 37.1431 10.9276 37.1072C9.8427 36.8627 8.83619 36.3506 7.99978 35.6177C7.68649 35.378 7.44186 35.06 7.29052 34.6957C7.13917 34.3314 7.08644 33.9337 7.13764 33.5426C7.18884 33.1515 7.34216 32.7807 7.58217 32.4677C7.82218 32.1546 8.14041 31.9103 8.50485 31.7593C9.41499 31.2286 10.3226 30.7236 11.1814 30.1185C12.2326 29.3571 13.0966 28.365 13.7042 27.219C14.0836 26.4627 14.058 26.3858 13.376 25.932C12.6555 25.4714 11.9645 24.9662 11.3071 24.4194C10.8365 24.032 10.4952 23.5105 10.3285 22.9242C10.1617 22.338 10.1776 21.7149 10.3738 21.1379C10.5933 20.372 11.0967 19.7188 11.7813 19.3115C12.466 18.9041 13.2802 18.7734 14.058 18.9459H14.5374C14.3147 17.2845 14.4916 15.5939 15.0535 14.0146C15.6153 12.4353 16.5458 11.0128 17.7678 9.86526C19.7839 8.16992 22.3516 7.27241 24.9848 7.34257C26.506 7.29303 28.0202 7.56884 29.4262 8.15156C30.8322 8.73428 32.0975 9.61047 33.1377 10.7215C34.1074 11.8716 34.8315 13.208 35.2653 14.6484C35.6992 16.0888 35.8337 17.6028 35.6604 19.0972C36.233 19.0459 36.8056 19.0459 37.3781 19.0972C37.976 19.1627 38.5391 19.4111 38.9905 19.8084C39.442 20.2057 39.7599 20.7327 39.9009 21.3173C40.0672 21.8871 40.0652 22.4927 39.8951 23.0613C39.725 23.6299 39.394 24.1372 38.9421 24.522C38.2504 25.1015 37.5253 25.6399 36.7705 26.1345C36.1911 26.5114 36.1655 26.5883 36.468 27.219C37.4001 28.9315 38.8126 30.3341 40.5316 31.2542L41.6417 31.8593C42.0404 32.0408 42.3795 32.3314 42.6199 32.6975C42.8603 33.0637 42.9922 33.4904 43.0002 33.9283C43.0082 34.3662 42.8922 34.7975 42.6654 35.1722C42.4386 35.5469 42.1103 35.8498 41.7186 36.0458L41.4417 36.2048Z" fill="#F0E7E2"/>
</svg>
