<svg width="71" height="50" viewBox="0 0 71 50" fill="none" xmlns="http://www.w3.org/2000/svg">
<path d="M28.4 35.7143L46.8245 25L28.4 14.2857V35.7143ZM69.438 7.75C69.8995 9.42857 70.219 11.6786 70.432 14.5357C70.6805 17.3929 70.787 19.8571 70.787 22L71 25C71 32.8214 70.432 38.5714 69.438 42.25C68.5505 45.4643 66.4915 47.5357 63.2965 48.4286C61.628 48.8929 58.575 49.2143 53.889 49.4286C49.274 49.6786 45.0495 49.7857 41.1445 49.7857L35.5 50C20.6255 50 11.36 49.4286 7.7035 48.4286C4.5085 47.5357 2.4495 45.4643 1.562 42.25C1.1005 40.5714 0.781 38.3214 0.568 35.4643C0.3195 32.6071 0.213 30.1429 0.213 28L0 25C0 17.1786 0.568 11.4286 1.562 7.75C2.4495 4.53571 4.5085 2.46429 7.7035 1.57143C9.372 1.10714 12.425 0.785714 17.111 0.571428C21.726 0.321428 25.9505 0.214286 29.8555 0.214286L35.5 0C50.3745 0 59.64 0.571429 63.2965 1.57143C66.4915 2.46429 68.5505 4.53571 69.438 7.75Z" fill="#F0E7E2"/>
</svg>
