<svg width="70" height="70" viewBox="0 0 70 70" fill="none" xmlns="http://www.w3.org/2000/svg">
<rect width="70" height="70" fill="#3D3B48"/>
<path fill-rule="evenodd" clip-rule="evenodd" d="M62.2818 30.7851C60.528 29.4273 58.3066 28.8218 56.1064 29.1019C52.4748 20.7244 44.2855 15 34.4006 15C21.6703 15 11.3735 24.4333 10.3449 36.8542L9.84309 37.3351L8.42141 38.7003C7.34887 39.729 6.24707 40.7764 6.01081 40.9855C5.59274 41.36 5.28601 41.8425 5.12435 42.38C4.96755 42.8964 4.92573 43.5403 5.19753 44.1425C5.66376 45.1878 6.75929 45.7251 7.63739 45.7251H10.2257V47.8639C10.2257 48.6957 10.5561 49.4933 11.1442 50.0815C11.7324 50.6696 12.53 51 13.3618 51H23.7882C24.6199 51 25.4176 50.6696 26.0057 50.0815C26.5938 49.4933 26.9242 48.6957 26.9242 47.8639V44.6798H41.5216V47.8639C41.5216 48.6957 41.852 49.4933 42.4401 50.0815C43.0283 50.6696 43.8259 51 44.6577 51H55.082C55.9137 51 56.7114 50.6696 57.2995 50.0815C57.8876 49.4933 58.218 48.6957 58.218 47.8639V45.6938C60.4183 45.4137 62.4171 44.2712 63.7749 42.5174C65.1327 40.7636 65.7382 38.5422 65.4582 36.342C65.1782 34.1418 64.0356 32.1429 62.2818 30.7851ZM58.1198 38.9784C58.1249 36.3165 57.7064 33.6707 56.88 31.1403C58.4617 31.0887 60.0045 31.637 61.199 32.6752C62.3934 33.7134 63.1513 35.1647 63.3206 36.7382C63.4899 38.3117 63.058 39.8911 62.1117 41.1596C61.1654 42.4281 59.7746 43.2919 58.218 43.578V42.6371H58.1909L58.1699 41.8427C58.1449 40.8935 58.1198 39.9443 58.1198 38.9784ZM10.1525 39.9401V43.6323L7.63739 43.6365C7.53153 43.6287 7.42938 43.5942 7.34051 43.5362C7.24045 43.4774 7.15867 43.392 7.10426 43.2894C7.09799 43.2727 7.06872 43.1703 7.12517 42.9863C7.17314 42.8236 7.2633 42.6764 7.38651 42.5598C7.67084 42.311 8.82283 41.2155 9.86818 40.2119L10.1525 39.9401ZM43.6123 44.7279H56.1273V47.8639C56.1273 48.1412 56.0172 48.4071 55.8211 48.6031C55.6251 48.7991 55.3592 48.9093 55.082 48.9093H44.6577C44.3804 48.9093 44.1145 48.7991 43.9185 48.6031C43.7224 48.4071 43.6123 48.1412 43.6123 47.8639V44.7279ZM12.3164 44.7279H24.8335V47.8639C24.8335 48.1412 24.7234 48.4071 24.5273 48.6031C24.3313 48.7991 24.0654 48.9093 23.7882 48.9093H13.3618C13.0845 48.9093 12.8186 48.7991 12.6226 48.6031C12.4265 48.4071 12.3164 48.1412 12.3164 47.8639V44.7279ZM58.7909 35.6797C58.7351 35.545 58.7064 35.4007 58.7064 35.2549C58.7064 34.9605 58.8234 34.6781 59.0316 34.4699C59.2398 34.2617 59.5221 34.1447 59.8166 34.1447C60.111 34.1447 60.3934 34.2617 60.6016 34.4699C60.8098 34.6781 60.9267 34.9605 60.9267 35.2549C60.9267 35.4007 60.898 35.545 60.8422 35.6797C60.7864 35.8144 60.7047 35.9368 60.6016 36.0399C60.4985 36.143 60.3761 36.2248 60.2414 36.2805C60.1067 36.3363 59.9624 36.3651 59.8166 36.3651C59.6708 36.3651 59.5264 36.3363 59.3917 36.2805C59.257 36.2248 59.1347 36.143 59.0316 36.0399C58.9285 35.9368 58.8467 35.8144 58.7909 35.6797ZM29.8389 39.6731L46.0389 30.32L29.8389 20.9669V39.6731Z" fill="#FA7E05"/>
</svg>
