<svg width="264" height="36" viewBox="0 0 264 36" fill="none" xmlns="http://www.w3.org/2000/svg">
<path fill-rule="evenodd" clip-rule="evenodd" d="M57.2818 15.7851C55.528 14.4273 53.3066 13.8218 51.1064 14.1019C47.4748 5.72437 39.2855 0 29.4006 0C16.6703 0 6.3735 9.4333 5.34486 21.8542L4.84309 22.3351L3.42141 23.7003C2.34887 24.729 1.24707 25.7764 1.01081 25.9855C0.592737 26.36 0.28601 26.8425 0.124353 27.38C-0.0324509 27.8964 -0.0742655 28.5403 0.197527 29.1425C0.663756 30.1878 1.75929 30.7251 2.63739 30.7251H5.2257V32.8639C5.2257 33.6957 5.5561 34.4933 6.14423 35.0815C6.73236 35.6696 7.53003 36 8.36177 36H18.7882C19.6199 36 20.4176 35.6696 21.0057 35.0815C21.5938 34.4933 21.9242 33.6957 21.9242 32.8639V29.6798H36.5216V32.8639C36.5216 33.6957 36.852 34.4933 37.4401 35.0815C38.0283 35.6696 38.8259 36 39.6577 36H50.082C50.9137 36 51.7114 35.6696 52.2995 35.0815C52.8876 34.4933 53.218 33.6957 53.218 32.8639V30.6938C55.4183 30.4137 57.4171 29.2712 58.7749 27.5174C60.1327 25.7636 60.7382 23.5422 60.4582 21.342C60.1782 19.1418 59.0356 17.1429 57.2818 15.7851ZM53.1198 23.9784C53.1249 21.3165 52.7064 18.6707 51.88 16.1403C53.4617 16.0887 55.0045 16.637 56.199 17.6752C57.3934 18.7134 58.1513 20.1647 58.3206 21.7382C58.4899 23.3117 58.058 24.8911 57.1117 26.1596C56.1654 27.4281 54.7746 28.2919 53.218 28.578V27.6371H53.1909L53.1699 26.8427C53.1449 25.8935 53.1198 24.9443 53.1198 23.9784ZM5.15252 24.9401V28.6323L2.63739 28.6365C2.53153 28.6287 2.42938 28.5942 2.34051 28.5362C2.24045 28.4774 2.15867 28.392 2.10426 28.2894C2.09799 28.2727 2.06872 28.1703 2.12517 27.9863C2.17314 27.8236 2.2633 27.6764 2.38651 27.5598C2.67084 27.311 3.82283 26.2155 4.86818 25.2119L5.15252 24.9401ZM38.6123 29.7279H51.1273V32.8639C51.1273 33.1412 51.0172 33.4071 50.8211 33.6031C50.6251 33.7991 50.3592 33.9093 50.082 33.9093H39.6577C39.3804 33.9093 39.1145 33.7991 38.9185 33.6031C38.7224 33.4071 38.6123 33.1412 38.6123 32.8639V29.7279ZM7.31641 29.7279H19.8335V32.8639C19.8335 33.1412 19.7234 33.4071 19.5273 33.6031C19.3313 33.7991 19.0654 33.9093 18.7882 33.9093H8.36177C8.08452 33.9093 7.81863 33.7991 7.62259 33.6031C7.42654 33.4071 7.31641 33.1412 7.31641 32.8639V29.7279ZM53.7909 20.6797C53.7351 20.545 53.7064 20.4007 53.7064 20.2549C53.7064 19.9605 53.8234 19.6781 54.0316 19.4699C54.2398 19.2617 54.5221 19.1447 54.8166 19.1447C55.111 19.1447 55.3934 19.2617 55.6016 19.4699C55.8098 19.6781 55.9267 19.9605 55.9267 20.2549C55.9267 20.4007 55.898 20.545 55.8422 20.6797C55.7864 20.8144 55.7047 20.9368 55.6016 21.0399C55.4985 21.143 55.3761 21.2248 55.2414 21.2805C55.1067 21.3363 54.9624 21.3651 54.8166 21.3651C54.6708 21.3651 54.5264 21.3363 54.3917 21.2805C54.257 21.2248 54.1347 21.143 54.0316 21.0399C53.9285 20.9368 53.8467 20.8144 53.7909 20.6797ZM24.8389 24.6731L41.0389 15.32L24.8389 5.96692V24.6731Z" fill="#FA7E05"/>
<path d="M87.7494 9.016C88.6294 9.016 89.0694 9.376 89.0694 10.096C89.0694 10.32 89.0214 10.6 88.9254 10.936L88.3494 12.88C88.1734 13.472 87.9574 13.888 87.7014 14.128C87.4454 14.368 87.0774 14.488 86.5974 14.488C86.1974 14.488 85.8854 14.384 85.6614 14.176C85.4534 13.968 85.2534 13.64 85.0614 13.192L84.6534 12.208C84.5254 11.904 84.3894 11.696 84.2454 11.584C84.1014 11.472 83.8774 11.416 83.5734 11.416H83.0214L79.9734 22.144C79.9254 22.352 79.9014 22.536 79.9014 22.696C79.9014 22.888 79.9254 23.048 79.9734 23.176C80.0374 23.304 80.1254 23.44 80.2374 23.584C80.3814 23.808 80.4534 23.992 80.4534 24.136C80.4534 24.168 80.4374 24.248 80.4054 24.376C80.3254 24.584 80.1654 24.736 79.9254 24.832C79.7014 24.928 79.3734 24.976 78.9414 24.976H73.3014C72.9654 24.976 72.7014 24.92 72.5094 24.808C72.3334 24.696 72.2454 24.536 72.2454 24.328C72.2454 24.232 72.2694 24.136 72.3174 24.04C72.3814 23.896 72.4534 23.792 72.5334 23.728C72.6294 23.648 72.7654 23.552 72.9414 23.44C73.1814 23.296 73.3814 23.136 73.5414 22.96C73.7014 22.784 73.8374 22.512 73.9494 22.144L76.9734 11.416H76.4214C76.0694 11.416 75.7814 11.472 75.5574 11.584C75.3334 11.696 75.0934 11.904 74.8374 12.208L74.0454 13.192C73.6774 13.624 73.3174 13.952 72.9654 14.176C72.6294 14.384 72.2614 14.488 71.8614 14.488C71.4934 14.488 71.2054 14.392 70.9974 14.2C70.7894 14.008 70.6854 13.744 70.6854 13.408C70.6854 13.248 70.7094 13.072 70.7574 12.88L71.3814 10.696C71.5094 10.248 71.6534 9.912 71.8134 9.688C71.9734 9.448 72.1974 9.28 72.4854 9.184C72.7894 9.072 73.2134 9.016 73.7574 9.016H87.7494ZM101.448 21.688C101.416 21.752 101.4 21.848 101.4 21.976C101.4 22.088 101.424 22.176 101.472 22.24C101.536 22.304 101.616 22.336 101.712 22.336C101.904 22.336 102.064 22.256 102.192 22.096C102.336 21.92 102.432 21.832 102.48 21.832C102.56 21.832 102.624 21.888 102.672 22C102.72 22.096 102.744 22.216 102.744 22.36C102.76 22.824 102.608 23.28 102.288 23.728C101.968 24.16 101.496 24.52 100.872 24.808C100.264 25.08 99.5283 25.216 98.6643 25.216C97.6083 25.216 96.7683 24.976 96.1443 24.496C95.5203 24 95.2003 23.344 95.1843 22.528C95.1843 21.936 95.3283 21.272 95.6163 20.536L96.9363 17.08C97.0163 16.872 97.0563 16.704 97.0563 16.576C97.0563 16.368 96.9843 16.208 96.8403 16.096C96.7123 15.968 96.5523 15.904 96.3603 15.904C96.0563 15.904 95.7443 16.048 95.4243 16.336C95.1203 16.608 94.8723 17.056 94.6803 17.68V17.632L93.1683 22.504C93.1203 22.696 93.0963 22.864 93.0963 23.008C93.0963 23.216 93.1363 23.384 93.2163 23.512C93.2963 23.624 93.4083 23.736 93.5523 23.848C93.6643 23.96 93.7443 24.056 93.7923 24.136C93.8403 24.2 93.8483 24.288 93.8163 24.4C93.7363 24.608 93.5763 24.76 93.3363 24.856C93.0963 24.952 92.7283 25 92.2323 25H86.7603C86.3443 25 86.0403 24.936 85.8483 24.808C85.6563 24.664 85.5923 24.48 85.6563 24.256C85.7203 24.064 85.8883 23.896 86.1603 23.752C86.4003 23.624 86.6003 23.472 86.7603 23.296C86.9203 23.12 87.0563 22.84 87.1683 22.456L90.8163 10.48C90.8643 10.336 90.8883 10.216 90.8883 10.12C90.8883 9.944 90.8403 9.8 90.7443 9.688C90.6643 9.576 90.5523 9.464 90.4083 9.352C90.2483 9.224 90.1283 9.112 90.0483 9.016C89.9843 8.92 89.9763 8.792 90.0243 8.632C90.1203 8.264 90.6243 7.944 91.5363 7.672C92.4483 7.4 93.4003 7.264 94.3923 7.264C95.3203 7.264 96.0003 7.44 96.4323 7.792C96.8803 8.144 97.1043 8.624 97.1043 9.232C97.1043 9.584 97.0483 9.928 96.9363 10.264L95.6403 14.488C96.2643 13.672 96.9203 13.104 97.6083 12.784C98.3123 12.464 99.0723 12.304 99.8883 12.304C100.864 12.304 101.648 12.6 102.24 13.192C102.848 13.784 103.152 14.552 103.152 15.496C103.152 15.992 103.072 16.48 102.912 16.96L101.448 21.688ZM111.911 12.184C113.943 12.184 115.415 12.512 116.327 13.168C117.239 13.808 117.695 14.632 117.695 15.64C117.695 15.944 117.663 16.224 117.599 16.48C117.359 17.536 116.687 18.296 115.583 18.76C114.495 19.208 113.207 19.432 111.719 19.432C110.967 19.432 110.263 19.384 109.607 19.288C109.591 20.12 109.815 20.704 110.279 21.04C110.743 21.376 111.391 21.544 112.223 21.544C112.607 21.544 112.975 21.504 113.327 21.424C113.679 21.328 114.127 21.192 114.671 21.016C115.119 20.856 115.423 20.776 115.583 20.776C115.759 20.776 115.847 20.88 115.847 21.088C115.863 21.648 115.655 22.24 115.223 22.864C114.791 23.472 114.151 23.992 113.303 24.424C112.455 24.856 111.431 25.072 110.231 25.072C108.455 25.072 106.999 24.624 105.863 23.728C104.727 22.832 104.159 21.528 104.159 19.816C104.159 19.336 104.223 18.776 104.351 18.136C104.751 16.168 105.623 14.688 106.967 13.696C108.327 12.688 109.975 12.184 111.911 12.184ZM109.775 17.848C109.839 17.864 109.927 17.872 110.039 17.872C110.711 17.872 111.223 17.56 111.575 16.936C111.927 16.312 112.095 15.616 112.079 14.848C112.063 14.4 111.935 14.176 111.695 14.176C111.519 14.176 111.311 14.32 111.071 14.608C110.831 14.88 110.591 15.296 110.351 15.856C110.127 16.416 109.935 17.08 109.775 17.848ZM141.234 9.016C142.114 9.016 142.554 9.376 142.554 10.096C142.554 10.32 142.506 10.6 142.41 10.936L141.834 12.88C141.658 13.472 141.442 13.888 141.186 14.128C140.93 14.368 140.562 14.488 140.082 14.488C139.682 14.488 139.37 14.384 139.146 14.176C138.938 13.968 138.738 13.64 138.546 13.192L138.138 12.208C138.01 11.904 137.874 11.696 137.73 11.584C137.586 11.472 137.362 11.416 137.058 11.416H136.506L133.458 22.144C133.41 22.352 133.386 22.536 133.386 22.696C133.386 22.888 133.41 23.048 133.458 23.176C133.522 23.304 133.61 23.44 133.722 23.584C133.866 23.808 133.938 23.992 133.938 24.136C133.938 24.168 133.922 24.248 133.89 24.376C133.81 24.584 133.65 24.736 133.41 24.832C133.186 24.928 132.858 24.976 132.426 24.976H126.786C126.45 24.976 126.186 24.92 125.994 24.808C125.818 24.696 125.73 24.536 125.73 24.328C125.73 24.232 125.754 24.136 125.802 24.04C125.866 23.896 125.938 23.792 126.018 23.728C126.114 23.648 126.25 23.552 126.426 23.44C126.666 23.296 126.866 23.136 127.026 22.96C127.186 22.784 127.322 22.512 127.434 22.144L130.458 11.416H129.906C129.554 11.416 129.266 11.472 129.042 11.584C128.818 11.696 128.578 11.904 128.322 12.208L127.53 13.192C127.162 13.624 126.802 13.952 126.45 14.176C126.114 14.384 125.746 14.488 125.346 14.488C124.978 14.488 124.69 14.392 124.482 14.2C124.274 14.008 124.17 13.744 124.17 13.408C124.17 13.248 124.194 13.072 124.242 12.88L124.866 10.696C124.994 10.248 125.138 9.912 125.298 9.688C125.458 9.448 125.682 9.28 125.97 9.184C126.274 9.072 126.698 9.016 127.242 9.016H141.234ZM154.477 21.688C154.445 21.816 154.429 21.912 154.429 21.976C154.429 22.088 154.453 22.176 154.501 22.24C154.565 22.304 154.645 22.336 154.741 22.336C154.933 22.336 155.093 22.256 155.221 22.096C155.365 21.92 155.461 21.832 155.509 21.832C155.589 21.832 155.653 21.888 155.701 22C155.765 22.096 155.797 22.216 155.797 22.36C155.813 22.808 155.653 23.256 155.317 23.704C154.981 24.136 154.509 24.496 153.901 24.784C153.293 25.072 152.613 25.216 151.861 25.216C150.917 25.216 150.165 25.024 149.605 24.64C149.045 24.256 148.685 23.752 148.525 23.128C147.949 23.768 147.309 24.256 146.605 24.592C145.917 24.912 145.213 25.072 144.493 25.072C143.373 25.072 142.429 24.8 141.661 24.256C140.909 23.696 140.533 22.92 140.533 21.928C140.533 21.48 140.613 21.016 140.773 20.536L142.309 15.52C142.357 15.376 142.381 15.256 142.381 15.16C142.381 14.984 142.341 14.848 142.261 14.752C142.181 14.64 142.061 14.528 141.901 14.416C141.741 14.288 141.629 14.176 141.565 14.08C141.501 13.984 141.493 13.856 141.541 13.696C141.637 13.328 142.141 13.008 143.053 12.736C143.965 12.448 144.917 12.304 145.909 12.304C146.837 12.304 147.517 12.48 147.949 12.832C148.381 13.184 148.597 13.664 148.597 14.272C148.597 14.64 148.541 14.992 148.429 15.328L146.917 20.32C146.853 20.496 146.821 20.664 146.821 20.824C146.821 21.048 146.885 21.216 147.013 21.328C147.141 21.44 147.309 21.496 147.517 21.496C147.821 21.496 148.069 21.408 148.261 21.232C148.453 21.056 148.645 20.76 148.837 20.344L150.301 15.52C150.349 15.376 150.373 15.256 150.373 15.16C150.373 14.984 150.333 14.848 150.253 14.752C150.173 14.64 150.061 14.528 149.917 14.416C149.757 14.288 149.645 14.176 149.581 14.08C149.517 13.984 149.509 13.856 149.557 13.696C149.637 13.328 150.133 13.008 151.045 12.736C151.957 12.448 152.909 12.304 153.901 12.304C154.829 12.304 155.509 12.48 155.941 12.832C156.389 13.184 156.613 13.656 156.613 14.248C156.613 14.552 156.549 14.912 156.421 15.328L154.477 21.688ZM168.458 12.304C169.354 12.304 170.066 12.576 170.594 13.12C171.138 13.664 171.41 14.336 171.41 15.136C171.41 15.44 171.378 15.72 171.314 15.976C171.154 16.632 170.85 17.136 170.402 17.488C169.954 17.84 169.418 18.016 168.794 18.016C168.186 18.016 167.722 17.872 167.402 17.584C167.098 17.296 166.826 16.912 166.586 16.432C166.458 16.16 166.338 15.96 166.226 15.832C166.114 15.704 165.986 15.64 165.842 15.64C165.682 15.64 165.538 15.704 165.41 15.832C165.298 15.96 165.194 16.184 165.098 16.504L163.25 22.504C163.218 22.584 163.202 22.704 163.202 22.864C163.202 23.072 163.258 23.248 163.37 23.392C163.498 23.52 163.666 23.648 163.874 23.776C164.066 23.904 164.194 24.008 164.258 24.088C164.322 24.168 164.346 24.272 164.33 24.4C164.298 24.608 164.178 24.76 163.97 24.856C163.778 24.952 163.442 25 162.962 25H156.818C156.402 25 156.106 24.936 155.93 24.808C155.738 24.664 155.666 24.48 155.714 24.256C155.778 24.064 155.946 23.896 156.218 23.752C156.458 23.624 156.658 23.472 156.818 23.296C156.978 23.12 157.114 22.84 157.226 22.456L159.362 15.52C159.394 15.44 159.41 15.328 159.41 15.184C159.41 15.008 159.37 14.872 159.29 14.776C159.226 14.68 159.114 14.56 158.954 14.416C158.794 14.288 158.682 14.176 158.618 14.08C158.554 13.984 158.546 13.856 158.594 13.696C158.69 13.328 159.194 13.008 160.106 12.736C161.018 12.448 161.97 12.304 162.962 12.304C163.618 12.304 164.162 12.456 164.594 12.76C165.026 13.048 165.306 13.464 165.434 14.008C166.202 12.872 167.21 12.304 168.458 12.304ZM181.3 12.616C181.604 12.616 181.836 12.68 181.996 12.808C182.172 12.936 182.26 13.112 182.26 13.336C182.26 13.4 182.244 13.512 182.212 13.672C182.004 14.376 181.524 14.728 180.772 14.728H179.38L177.58 20.656C177.5 20.896 177.46 21.144 177.46 21.4C177.46 21.688 177.54 21.888 177.7 22C177.86 22.112 178.084 22.168 178.372 22.168C178.628 22.168 178.948 22.136 179.332 22.072C179.524 22.024 179.692 22 179.836 22C179.948 22 180.028 22.04 180.076 22.12C180.14 22.184 180.172 22.272 180.172 22.384C180.188 22.704 179.948 23.096 179.452 23.56C178.972 24.008 178.316 24.4 177.484 24.736C176.652 25.056 175.732 25.216 174.724 25.216C173.636 25.216 172.764 24.968 172.108 24.472C171.452 23.976 171.124 23.296 171.124 22.432C171.124 22.032 171.188 21.648 171.316 21.28L172.852 16.528C172.932 16.256 172.972 16.04 172.972 15.88C172.972 15.56 172.892 15.288 172.732 15.064C172.588 14.84 172.38 14.608 172.108 14.368C171.868 14.144 171.7 13.96 171.604 13.816C171.508 13.656 171.484 13.472 171.532 13.264C171.596 13.056 171.732 12.896 171.94 12.784C172.148 12.672 172.476 12.616 172.924 12.616H174.268L175.78 11.104C176.308 10.576 176.788 10.208 177.22 10C177.668 9.792 178.244 9.688 178.948 9.688C179.956 9.688 180.46 10.072 180.46 10.84C180.46 11.08 180.428 11.304 180.364 11.512L180.028 12.616H181.3ZM188.541 7.264C189.469 7.264 190.149 7.44 190.581 7.792C191.029 8.144 191.253 8.624 191.253 9.232C191.253 9.584 191.197 9.928 191.085 10.264L187.317 22.504C187.269 22.696 187.245 22.864 187.245 23.008C187.245 23.216 187.285 23.384 187.365 23.512C187.445 23.624 187.557 23.736 187.701 23.848C187.813 23.96 187.893 24.056 187.941 24.136C187.989 24.2 187.997 24.288 187.965 24.4C187.885 24.608 187.725 24.76 187.485 24.856C187.245 24.952 186.877 25 186.381 25H180.909C180.493 25 180.189 24.936 179.997 24.808C179.805 24.664 179.741 24.48 179.805 24.256C179.869 24.064 180.037 23.896 180.309 23.752C180.549 23.624 180.749 23.472 180.909 23.296C181.069 23.12 181.205 22.84 181.317 22.456L184.965 10.48C185.013 10.336 185.037 10.216 185.037 10.12C185.037 9.944 184.989 9.8 184.893 9.688C184.813 9.576 184.701 9.464 184.557 9.352C184.397 9.224 184.277 9.112 184.197 9.016C184.133 8.92 184.125 8.792 184.173 8.632C184.269 8.264 184.773 7.944 185.685 7.672C186.597 7.4 187.549 7.264 188.541 7.264ZM197.81 12.184C199.842 12.184 201.314 12.512 202.226 13.168C203.138 13.808 203.594 14.632 203.594 15.64C203.594 15.944 203.562 16.224 203.498 16.48C203.258 17.536 202.586 18.296 201.482 18.76C200.394 19.208 199.106 19.432 197.618 19.432C196.866 19.432 196.162 19.384 195.506 19.288C195.49 20.12 195.714 20.704 196.178 21.04C196.642 21.376 197.29 21.544 198.122 21.544C198.506 21.544 198.874 21.504 199.226 21.424C199.578 21.328 200.026 21.192 200.57 21.016C201.018 20.856 201.322 20.776 201.482 20.776C201.658 20.776 201.746 20.88 201.746 21.088C201.762 21.648 201.554 22.24 201.122 22.864C200.69 23.472 200.05 23.992 199.202 24.424C198.354 24.856 197.33 25.072 196.13 25.072C194.354 25.072 192.898 24.624 191.762 23.728C190.626 22.832 190.058 21.528 190.058 19.816C190.058 19.336 190.122 18.776 190.25 18.136C190.65 16.168 191.522 14.688 192.866 13.696C194.226 12.688 195.874 12.184 197.81 12.184ZM195.674 17.848C195.738 17.864 195.826 17.872 195.938 17.872C196.61 17.872 197.122 17.56 197.474 16.936C197.826 16.312 197.994 15.616 197.978 14.848C197.962 14.4 197.834 14.176 197.594 14.176C197.418 14.176 197.21 14.32 196.97 14.608C196.73 14.88 196.49 15.296 196.25 15.856C196.026 16.416 195.834 17.08 195.674 17.848ZM215.344 12.208C216.528 12.208 217.472 12.632 218.176 13.48C218.896 14.328 219.256 15.448 219.256 16.84C219.256 17.56 219.168 18.264 218.992 18.952C218.48 21.016 217.6 22.576 216.352 23.632C215.12 24.688 213.696 25.216 212.08 25.216C211.168 25.216 210.376 25.064 209.704 24.76C209.048 24.44 208.52 23.992 208.12 23.416L207.256 24.16C206.92 24.448 206.592 24.664 206.272 24.808C205.952 24.936 205.584 25 205.168 25H204.112C203.712 25 203.4 24.92 203.176 24.76C202.968 24.584 202.864 24.336 202.864 24.016C202.864 23.872 202.888 23.704 202.936 23.512L206.944 10.48C206.992 10.336 207.016 10.216 207.016 10.12C207.016 9.848 206.848 9.592 206.512 9.352C206.352 9.208 206.24 9.096 206.176 9.016C206.112 8.92 206.104 8.8 206.152 8.656C206.264 8.288 206.768 7.968 207.664 7.696C208.576 7.408 209.528 7.264 210.52 7.264C211.448 7.264 212.128 7.448 212.56 7.816C213.008 8.168 213.232 8.648 213.232 9.256C213.232 9.592 213.176 9.928 213.064 10.264L212.056 13.528C212.984 12.648 214.08 12.208 215.344 12.208ZM212.632 18.808C212.952 17.72 213.112 16.84 213.112 16.168C213.112 15.432 212.896 15.064 212.464 15.064C212.08 15.064 211.72 15.264 211.384 15.664L209.824 20.752L209.68 21.208C209.6 21.448 209.56 21.696 209.56 21.952C209.56 22.512 209.824 22.792 210.352 22.792C210.736 22.792 211.104 22.512 211.456 21.952C211.808 21.392 212.2 20.344 212.632 18.808ZM228.148 12.304C229.988 12.304 231.46 12.648 232.564 13.336C233.668 14.008 234.22 15.04 234.22 16.432C234.22 16.96 234.124 17.56 233.932 18.232L232.948 21.544C232.932 21.608 232.924 21.688 232.924 21.784C232.924 22.04 233.028 22.168 233.236 22.168C233.428 22.168 233.588 22.088 233.716 21.928C233.86 21.752 233.956 21.664 234.004 21.664C234.084 21.664 234.148 21.72 234.196 21.832C234.26 21.944 234.292 22.072 234.292 22.216C234.308 22.648 234.14 23.088 233.788 23.536C233.452 23.984 232.996 24.352 232.42 24.64C231.844 24.928 231.212 25.072 230.524 25.072C229.692 25.072 228.98 24.92 228.388 24.616C227.796 24.312 227.388 23.864 227.164 23.272C226.684 23.848 226.116 24.296 225.46 24.616C224.804 24.92 224.1 25.072 223.348 25.072C222.5 25.072 221.788 24.912 221.212 24.592C220.636 24.256 220.204 23.832 219.916 23.32C219.644 22.792 219.508 22.24 219.508 21.664C219.508 21.408 219.532 21.16 219.58 20.92C219.836 19.816 220.388 18.984 221.236 18.424C222.1 17.864 223.124 17.584 224.308 17.584C225.636 17.584 226.94 17.792 228.22 18.208L228.82 16.624C229.028 15.952 229.132 15.432 229.132 15.064C229.116 14.68 228.988 14.392 228.748 14.2C228.508 14.008 228.14 13.912 227.644 13.912C227.74 14.168 227.788 14.432 227.788 14.704C227.788 15.296 227.564 15.808 227.116 16.24C226.668 16.672 226.028 16.888 225.196 16.888C224.412 16.888 223.796 16.72 223.348 16.384C222.916 16.032 222.7 15.6 222.7 15.088C222.7 14.288 223.148 13.624 224.044 13.096C224.94 12.568 226.308 12.304 228.148 12.304ZM226.804 19.576C226.356 19.576 225.988 19.752 225.7 20.104C225.428 20.44 225.292 20.808 225.292 21.208C225.292 21.464 225.348 21.672 225.46 21.832C225.588 21.992 225.764 22.072 225.988 22.072C226.196 22.072 226.42 21.992 226.66 21.832C226.916 21.656 227.1 21.4 227.212 21.064L227.716 19.648C227.444 19.6 227.14 19.576 226.804 19.576ZM243.179 12.088C244.507 12.088 245.651 12.208 246.611 12.448C247.587 12.688 248.331 13.024 248.843 13.456C249.371 13.888 249.635 14.376 249.635 14.92C249.635 15.48 249.411 15.936 248.963 16.288C248.531 16.64 247.923 16.816 247.139 16.816C246.339 16.816 245.659 16.616 245.099 16.216C244.555 15.816 244.283 15.312 244.283 14.704C244.283 14.496 244.315 14.296 244.379 14.104C244.091 14.024 243.835 13.984 243.611 13.984C243.211 13.984 242.875 14.08 242.603 14.272C242.347 14.464 242.227 14.736 242.243 15.088C242.243 15.504 242.451 15.856 242.867 16.144C243.283 16.432 243.955 16.792 244.883 17.224C245.683 17.576 246.339 17.904 246.851 18.208C247.379 18.496 247.819 18.864 248.171 19.312C248.539 19.76 248.723 20.288 248.723 20.896C248.723 21.024 248.691 21.264 248.627 21.616C248.371 22.688 247.659 23.536 246.491 24.16C245.323 24.784 243.787 25.096 241.883 25.096C239.739 25.096 238.035 24.808 236.771 24.232C235.523 23.656 234.899 22.864 234.899 21.856C234.899 21.168 235.107 20.648 235.523 20.296C235.939 19.944 236.491 19.768 237.179 19.768C237.979 19.768 238.659 20.016 239.219 20.512C239.795 21.008 240.083 21.64 240.083 22.408C240.083 22.616 240.059 22.832 240.011 23.056C240.395 23.152 240.763 23.2 241.115 23.2C241.531 23.2 241.875 23.088 242.147 22.864C242.419 22.64 242.555 22.328 242.555 21.928C242.539 21.56 242.355 21.248 242.003 20.992C241.651 20.72 241.091 20.4 240.323 20.032C239.603 19.696 239.011 19.384 238.547 19.096C238.083 18.792 237.683 18.416 237.347 17.968C237.027 17.52 236.867 16.992 236.867 16.384C236.867 15.072 237.411 14.032 238.499 13.264C239.603 12.48 241.163 12.088 243.179 12.088ZM257.646 12.184C259.678 12.184 261.15 12.512 262.062 13.168C262.974 13.808 263.43 14.632 263.43 15.64C263.43 15.944 263.398 16.224 263.334 16.48C263.094 17.536 262.422 18.296 261.318 18.76C260.23 19.208 258.942 19.432 257.454 19.432C256.702 19.432 255.998 19.384 255.342 19.288C255.326 20.12 255.55 20.704 256.014 21.04C256.478 21.376 257.126 21.544 257.958 21.544C258.342 21.544 258.71 21.504 259.062 21.424C259.414 21.328 259.862 21.192 260.406 21.016C260.854 20.856 261.158 20.776 261.318 20.776C261.494 20.776 261.582 20.88 261.582 21.088C261.598 21.648 261.39 22.24 260.958 22.864C260.526 23.472 259.886 23.992 259.038 24.424C258.19 24.856 257.166 25.072 255.966 25.072C254.19 25.072 252.734 24.624 251.598 23.728C250.462 22.832 249.894 21.528 249.894 19.816C249.894 19.336 249.958 18.776 250.086 18.136C250.486 16.168 251.358 14.688 252.702 13.696C254.062 12.688 255.71 12.184 257.646 12.184ZM255.51 17.848C255.574 17.864 255.662 17.872 255.774 17.872C256.446 17.872 256.958 17.56 257.31 16.936C257.662 16.312 257.83 15.616 257.814 14.848C257.798 14.4 257.67 14.176 257.43 14.176C257.254 14.176 257.046 14.32 256.806 14.608C256.566 14.88 256.326 15.296 256.086 15.856C255.862 16.416 255.67 17.08 255.51 17.848Z" fill="#6ECDC7"/>
</svg>
