<svg width="253" height="150" viewBox="0 0 253 150" fill="none" xmlns="http://www.w3.org/2000/svg">
<path d="M224.145 65.6046C224.145 64.9972 224.265 64.3957 224.497 63.8345C224.73 63.2732 225.07 62.7633 225.5 62.3338C225.929 61.9042 226.439 61.5635 227.001 61.331C227.562 61.0986 228.163 60.9789 228.771 60.9789C229.378 60.9789 229.98 61.0986 230.541 61.331C231.102 61.5635 231.612 61.9042 232.042 62.3338C232.471 62.7633 232.812 63.2732 233.044 63.8345C233.277 64.3957 233.396 64.9972 233.396 65.6046C233.396 66.8314 232.909 68.008 232.042 68.8755C231.174 69.743 229.998 70.2303 228.771 70.2303C227.544 70.2303 226.367 69.743 225.5 68.8755C224.632 68.008 224.145 66.8314 224.145 65.6046ZM97.866 98.786C104.957 96.9828 113.058 95.8242 122.057 95.8242C131.073 95.8242 139.184 96.9915 146.283 98.786L165.056 59.8116C152.904 55.4908 138.26 52.2676 122.057 52.2676C105.872 52.2676 91.2367 55.4908 79.0931 59.7942L97.866 98.786Z" fill="#F0E7E2"/>
<path d="M213.312 91.2422C222.48 92.409 231.735 89.8861 239.043 84.2287C246.35 78.5712 251.111 70.2426 252.278 61.075C253.444 51.9074 250.922 42.6518 245.264 35.3443C239.607 28.0368 231.278 23.276 222.11 22.1093V13.067C222.11 9.60138 220.734 6.27776 218.283 3.82722C215.833 1.37669 212.509 0 209.043 0H165.609C162.143 0 158.82 1.37669 156.369 3.82722C153.919 6.27776 152.542 9.60138 152.542 13.067V26.3343H91.7196V13.067C91.7196 9.60138 90.3429 6.27776 87.8924 3.82722C85.4418 1.37669 82.1182 0 78.6526 0H35.2093C31.7438 0 28.4201 1.37669 25.9696 3.82722C23.5191 6.27776 22.1424 9.60138 22.1424 13.067V21.9786H11.3578C7.69901 21.9786 3.13429 24.2174 1.19167 28.5731C0.0592041 31.0819 0.233429 33.765 0.886765 35.9167C1.56035 38.1563 2.83838 40.1668 4.58037 41.7272C5.56474 42.5983 10.1556 46.9627 14.6245 51.2486L20.5482 56.9371L22.6389 58.9407C26.9249 110.695 69.8281 150 122.871 150C164.058 150 198.18 126.148 213.312 91.2422ZM216.535 82.7487C219.979 72.2055 221.723 61.1814 221.701 50.09C221.701 46.0654 221.806 42.1105 221.91 38.1555L221.997 34.8452H222.11V30.9251C228.596 32.1169 234.391 35.7164 238.334 41.0018C242.277 46.2872 244.076 52.8678 243.371 59.4241C242.666 65.9803 239.508 72.0276 234.531 76.3534C229.554 80.6792 223.126 82.9637 216.535 82.7487ZM171.236 120.686C166.271 115.712 148.796 104.536 122.052 104.536C95.3086 104.536 77.8338 115.712 72.8683 120.686C72.0504 121.504 70.9412 121.964 69.7845 121.964C68.6279 121.964 67.5186 121.504 66.7007 120.686C65.8828 119.869 65.4234 118.759 65.4234 117.603C65.4234 116.446 65.8828 115.337 66.7007 114.519C70.4204 110.808 78.2083 105.407 89.4372 101.365L70.9518 62.9827C59.4006 67.9569 50.8723 73.5931 46.4818 77.3564C46.0471 77.7282 45.5434 78.0107 44.9995 78.1879C44.4556 78.365 43.8821 78.4333 43.3118 78.3888C42.7415 78.3443 42.1856 78.1879 41.6757 77.9286C41.1659 77.6692 40.7121 77.312 40.3403 76.8773C39.9685 76.4426 39.686 75.9389 39.5088 75.395C39.3317 74.8511 39.2634 74.2776 39.3079 73.7073C39.3524 73.137 39.5088 72.5811 39.7681 72.0712C40.0275 71.5614 40.3847 71.1076 40.8194 70.7358C51.6301 61.467 82.503 43.5565 122.052 43.5565C161.602 43.5565 192.475 61.467 203.285 70.7358C203.72 71.1076 204.077 71.5614 204.337 72.0712C204.596 72.5811 204.752 73.137 204.797 73.7073C204.841 74.2776 204.773 74.8511 204.596 75.395C204.419 75.9389 204.136 76.4426 203.764 76.8773C203.393 77.312 202.939 77.6692 202.429 77.9286C201.919 78.1879 201.363 78.3443 200.793 78.3888C200.223 78.4333 199.649 78.365 199.105 78.1879C198.561 78.0107 198.058 77.7282 197.623 77.3564C193.232 73.5931 184.73 67.9743 173.188 63.0002L154.711 101.373C165.914 105.416 173.693 110.817 177.404 114.528C178.221 115.345 178.679 116.454 178.678 117.61C178.677 118.766 178.218 119.874 177.4 120.691C176.582 121.508 175.473 121.966 174.317 121.965C173.161 121.964 172.053 121.504 171.236 120.686ZM21.8375 30.6986V46.0828L20.6527 44.9503C16.2971 40.7689 11.4971 36.2042 10.3124 35.1675C9.79906 34.6816 9.42337 34.0685 9.2235 33.3904C8.9883 32.6238 9.11024 32.197 9.13638 32.1273C9.3631 31.7002 9.70384 31.3443 10.1208 31.0994C10.4911 30.8576 10.9167 30.7137 11.3578 30.6812L21.8375 30.6986ZM213.399 26.1339H161.253V13.067C161.253 11.9118 161.712 10.8039 162.529 9.98705C163.346 9.1702 164.454 8.7113 165.609 8.7113H209.043C210.199 8.7113 211.307 9.1702 212.123 9.98705C212.94 10.8039 213.399 11.9118 213.399 13.067V26.1339ZM83.0083 26.1339H30.8537V13.067C30.8537 11.9118 31.3126 10.8039 32.1294 9.98705C32.9463 9.1702 34.0541 8.7113 35.2093 8.7113H78.6526C79.8078 8.7113 80.9157 9.1702 81.7325 9.98705C82.5494 10.8039 83.0083 11.9118 83.0083 13.067V26.1339Z" fill="#F0E7E2"/>
</svg>
