<svg width="270" height="36" viewBox="0 0 270 36" fill="none" xmlns="http://www.w3.org/2000/svg">
<path fill-rule="evenodd" clip-rule="evenodd" d="M57.2818 15.7851C55.528 14.4273 53.3066 13.8218 51.1064 14.1019C47.4748 5.72437 39.2855 0 29.4006 0C16.6703 0 6.3735 9.4333 5.34486 21.8542L4.84309 22.3351L3.42141 23.7003C2.34887 24.729 1.24707 25.7764 1.01081 25.9855C0.592737 26.36 0.28601 26.8425 0.124353 27.38C-0.0324509 27.8964 -0.0742655 28.5403 0.197527 29.1425C0.663756 30.1878 1.75929 30.7251 2.63739 30.7251H5.2257V32.8639C5.2257 33.6957 5.5561 34.4933 6.14423 35.0815C6.73236 35.6696 7.53003 36 8.36177 36H18.7882C19.6199 36 20.4176 35.6696 21.0057 35.0815C21.5938 34.4933 21.9242 33.6957 21.9242 32.8639V29.6798H36.5216V32.8639C36.5216 33.6957 36.852 34.4933 37.4401 35.0815C38.0283 35.6696 38.8259 36 39.6577 36H50.082C50.9137 36 51.7114 35.6696 52.2995 35.0815C52.8876 34.4933 53.218 33.6957 53.218 32.8639V30.6938C55.4183 30.4137 57.4171 29.2712 58.7749 27.5174C60.1327 25.7636 60.7382 23.5422 60.4582 21.342C60.1782 19.1418 59.0356 17.1429 57.2818 15.7851ZM53.1198 23.9784C53.1249 21.3165 52.7064 18.6707 51.88 16.1403C53.4617 16.0887 55.0045 16.637 56.199 17.6752C57.3934 18.7134 58.1513 20.1647 58.3206 21.7382C58.4899 23.3117 58.058 24.8911 57.1117 26.1596C56.1654 27.4281 54.7746 28.2919 53.218 28.578V27.6371H53.1909L53.1699 26.8427C53.1449 25.8935 53.1198 24.9443 53.1198 23.9784ZM5.15252 24.9401V28.6323L2.63739 28.6365C2.53153 28.6287 2.42938 28.5942 2.34051 28.5362C2.24045 28.4774 2.15867 28.392 2.10426 28.2894C2.09799 28.2727 2.06872 28.1703 2.12517 27.9863C2.17314 27.8236 2.2633 27.6764 2.38651 27.5598C2.67084 27.311 3.82283 26.2155 4.86818 25.2119L5.15252 24.9401ZM38.6123 29.7279H51.1273V32.8639C51.1273 33.1412 51.0172 33.4071 50.8211 33.6031C50.6251 33.7991 50.3592 33.9093 50.082 33.9093H39.6577C39.3804 33.9093 39.1145 33.7991 38.9185 33.6031C38.7224 33.4071 38.6123 33.1412 38.6123 32.8639V29.7279ZM7.31641 29.7279H19.8335V32.8639C19.8335 33.1412 19.7234 33.4071 19.5273 33.6031C19.3313 33.7991 19.0654 33.9093 18.7882 33.9093H8.36177C8.08452 33.9093 7.81863 33.7991 7.62259 33.6031C7.42654 33.4071 7.31641 33.1412 7.31641 32.8639V29.7279ZM53.7909 20.6797C53.7351 20.545 53.7064 20.4007 53.7064 20.2549C53.7064 19.9605 53.8234 19.6781 54.0316 19.4699C54.2398 19.2617 54.5221 19.1447 54.8166 19.1447C55.111 19.1447 55.3934 19.2617 55.6016 19.4699C55.8098 19.6781 55.9267 19.9605 55.9267 20.2549C55.9267 20.4007 55.898 20.545 55.8422 20.6797C55.7864 20.8144 55.7047 20.9368 55.6016 21.0399C55.4985 21.143 55.3761 21.2248 55.2414 21.2805C55.1067 21.3363 54.9624 21.3651 54.8166 21.3651C54.6708 21.3651 54.5264 21.3363 54.3917 21.2805C54.257 21.2248 54.1347 21.143 54.0316 21.0399C53.9285 20.9368 53.8467 20.8144 53.7909 20.6797ZM24.8389 24.6731L41.0389 15.32L24.8389 5.96692V24.6731Z" fill="#FA7E05"/>
<path d="M87.7494 9.016C88.6294 9.016 89.0694 9.376 89.0694 10.096C89.0694 10.32 89.0214 10.6 88.9254 10.936L88.3494 12.88C88.1734 13.472 87.9574 13.888 87.7014 14.128C87.4454 14.368 87.0774 14.488 86.5974 14.488C86.1974 14.488 85.8854 14.384 85.6614 14.176C85.4534 13.968 85.2534 13.64 85.0614 13.192L84.6534 12.208C84.5254 11.904 84.3894 11.696 84.2454 11.584C84.1014 11.472 83.8774 11.416 83.5734 11.416H83.0214L79.9734 22.144C79.9254 22.352 79.9014 22.536 79.9014 22.696C79.9014 22.888 79.9254 23.048 79.9734 23.176C80.0374 23.304 80.1254 23.44 80.2374 23.584C80.3814 23.808 80.4534 23.992 80.4534 24.136C80.4534 24.168 80.4374 24.248 80.4054 24.376C80.3254 24.584 80.1654 24.736 79.9254 24.832C79.7014 24.928 79.3734 24.976 78.9414 24.976H73.3014C72.9654 24.976 72.7014 24.92 72.5094 24.808C72.3334 24.696 72.2454 24.536 72.2454 24.328C72.2454 24.232 72.2694 24.136 72.3174 24.04C72.3814 23.896 72.4534 23.792 72.5334 23.728C72.6294 23.648 72.7654 23.552 72.9414 23.44C73.1814 23.296 73.3814 23.136 73.5414 22.96C73.7014 22.784 73.8374 22.512 73.9494 22.144L76.9734 11.416H76.4214C76.0694 11.416 75.7814 11.472 75.5574 11.584C75.3334 11.696 75.0934 11.904 74.8374 12.208L74.0454 13.192C73.6774 13.624 73.3174 13.952 72.9654 14.176C72.6294 14.384 72.2614 14.488 71.8614 14.488C71.4934 14.488 71.2054 14.392 70.9974 14.2C70.7894 14.008 70.6854 13.744 70.6854 13.408C70.6854 13.248 70.7094 13.072 70.7574 12.88L71.3814 10.696C71.5094 10.248 71.6534 9.912 71.8134 9.688C71.9734 9.448 72.1974 9.28 72.4854 9.184C72.7894 9.072 73.2134 9.016 73.7574 9.016H87.7494ZM101.928 21.688C101.896 21.752 101.88 21.848 101.88 21.976C101.88 22.088 101.904 22.176 101.952 22.24C102.016 22.304 102.096 22.336 102.192 22.336C102.384 22.336 102.544 22.256 102.672 22.096C102.816 21.92 102.912 21.832 102.96 21.832C103.04 21.832 103.104 21.888 103.152 22C103.2 22.096 103.224 22.216 103.224 22.36C103.24 22.824 103.088 23.28 102.768 23.728C102.448 24.16 101.976 24.52 101.352 24.808C100.744 25.08 100.008 25.216 99.1443 25.216C98.0883 25.216 97.2483 24.976 96.6243 24.496C96.0003 24 95.6803 23.344 95.6643 22.528C95.6643 21.936 95.8083 21.272 96.0963 20.536L97.4163 17.08C97.4963 16.872 97.5363 16.704 97.5363 16.576C97.5363 16.368 97.4643 16.208 97.3203 16.096C97.1923 15.968 97.0323 15.904 96.8403 15.904C96.5363 15.904 96.2243 16.048 95.9043 16.336C95.6003 16.608 95.3523 17.056 95.1603 17.68V17.632L93.6483 22.504C93.6003 22.696 93.5763 22.864 93.5763 23.008C93.5763 23.216 93.6163 23.384 93.6963 23.512C93.7763 23.624 93.8883 23.736 94.0323 23.848C94.1443 23.96 94.2243 24.056 94.2723 24.136C94.3203 24.2 94.3283 24.288 94.2963 24.4C94.2163 24.608 94.0563 24.76 93.8163 24.856C93.5763 24.952 93.2083 25 92.7123 25H87.2403C86.8243 25 86.5203 24.936 86.3283 24.808C86.1363 24.664 86.0723 24.48 86.1363 24.256C86.2003 24.064 86.3683 23.896 86.6403 23.752C86.8803 23.624 87.0803 23.472 87.2403 23.296C87.4003 23.12 87.5363 22.84 87.6483 22.456L91.2963 10.48C91.3443 10.336 91.3683 10.216 91.3683 10.12C91.3683 9.944 91.3203 9.8 91.2243 9.688C91.1443 9.576 91.0323 9.464 90.8883 9.352C90.7283 9.224 90.6083 9.112 90.5283 9.016C90.4643 8.92 90.4563 8.792 90.5043 8.632C90.6003 8.264 91.1043 7.944 92.0163 7.672C92.9283 7.4 93.8803 7.264 94.8723 7.264C95.8003 7.264 96.4803 7.44 96.9123 7.792C97.3603 8.144 97.5843 8.624 97.5843 9.232C97.5843 9.584 97.5283 9.928 97.4163 10.264L96.1203 14.488C96.7443 13.672 97.4003 13.104 98.0883 12.784C98.7923 12.464 99.5523 12.304 100.368 12.304C101.344 12.304 102.128 12.6 102.72 13.192C103.328 13.784 103.632 14.552 103.632 15.496C103.632 15.992 103.552 16.48 103.392 16.96L101.928 21.688ZM112.871 12.184C114.903 12.184 116.375 12.512 117.287 13.168C118.199 13.808 118.655 14.632 118.655 15.64C118.655 15.944 118.623 16.224 118.559 16.48C118.319 17.536 117.647 18.296 116.543 18.76C115.455 19.208 114.167 19.432 112.679 19.432C111.927 19.432 111.223 19.384 110.567 19.288C110.551 20.12 110.775 20.704 111.239 21.04C111.703 21.376 112.351 21.544 113.183 21.544C113.567 21.544 113.935 21.504 114.287 21.424C114.639 21.328 115.087 21.192 115.631 21.016C116.079 20.856 116.383 20.776 116.543 20.776C116.719 20.776 116.807 20.88 116.807 21.088C116.823 21.648 116.615 22.24 116.183 22.864C115.751 23.472 115.111 23.992 114.263 24.424C113.415 24.856 112.391 25.072 111.191 25.072C109.415 25.072 107.959 24.624 106.823 23.728C105.687 22.832 105.119 21.528 105.119 19.816C105.119 19.336 105.183 18.776 105.311 18.136C105.711 16.168 106.583 14.688 107.927 13.696C109.287 12.688 110.935 12.184 112.871 12.184ZM110.735 17.848C110.799 17.864 110.887 17.872 110.999 17.872C111.671 17.872 112.183 17.56 112.535 16.936C112.887 16.312 113.055 15.616 113.039 14.848C113.023 14.4 112.895 14.176 112.655 14.176C112.479 14.176 112.271 14.32 112.031 14.608C111.791 14.88 111.551 15.296 111.311 15.856C111.087 16.416 110.895 17.08 110.735 17.848ZM143.154 9.016C144.034 9.016 144.474 9.376 144.474 10.096C144.474 10.32 144.426 10.6 144.33 10.936L143.754 12.88C143.578 13.472 143.362 13.888 143.106 14.128C142.85 14.368 142.482 14.488 142.002 14.488C141.602 14.488 141.29 14.384 141.066 14.176C140.858 13.968 140.658 13.64 140.466 13.192L140.058 12.208C139.93 11.904 139.794 11.696 139.65 11.584C139.506 11.472 139.282 11.416 138.978 11.416H138.426L135.378 22.144C135.33 22.352 135.306 22.536 135.306 22.696C135.306 22.888 135.33 23.048 135.378 23.176C135.442 23.304 135.53 23.44 135.642 23.584C135.786 23.808 135.858 23.992 135.858 24.136C135.858 24.168 135.842 24.248 135.81 24.376C135.73 24.584 135.57 24.736 135.33 24.832C135.106 24.928 134.778 24.976 134.346 24.976H128.706C128.37 24.976 128.106 24.92 127.914 24.808C127.738 24.696 127.65 24.536 127.65 24.328C127.65 24.232 127.674 24.136 127.722 24.04C127.786 23.896 127.858 23.792 127.938 23.728C128.034 23.648 128.17 23.552 128.346 23.44C128.586 23.296 128.786 23.136 128.946 22.96C129.106 22.784 129.242 22.512 129.354 22.144L132.378 11.416H131.826C131.474 11.416 131.186 11.472 130.962 11.584C130.738 11.696 130.498 11.904 130.242 12.208L129.45 13.192C129.082 13.624 128.722 13.952 128.37 14.176C128.034 14.384 127.666 14.488 127.266 14.488C126.898 14.488 126.61 14.392 126.402 14.2C126.194 14.008 126.09 13.744 126.09 13.408C126.09 13.248 126.114 13.072 126.162 12.88L126.786 10.696C126.914 10.248 127.058 9.912 127.218 9.688C127.378 9.448 127.602 9.28 127.89 9.184C128.194 9.072 128.618 9.016 129.162 9.016H143.154ZM156.877 21.688C156.845 21.816 156.829 21.912 156.829 21.976C156.829 22.088 156.853 22.176 156.901 22.24C156.965 22.304 157.045 22.336 157.141 22.336C157.333 22.336 157.493 22.256 157.621 22.096C157.765 21.92 157.861 21.832 157.909 21.832C157.989 21.832 158.053 21.888 158.101 22C158.165 22.096 158.197 22.216 158.197 22.36C158.213 22.808 158.053 23.256 157.717 23.704C157.381 24.136 156.909 24.496 156.301 24.784C155.693 25.072 155.013 25.216 154.261 25.216C153.317 25.216 152.565 25.024 152.005 24.64C151.445 24.256 151.085 23.752 150.925 23.128C150.349 23.768 149.709 24.256 149.005 24.592C148.317 24.912 147.613 25.072 146.893 25.072C145.773 25.072 144.829 24.8 144.061 24.256C143.309 23.696 142.933 22.92 142.933 21.928C142.933 21.48 143.013 21.016 143.173 20.536L144.709 15.52C144.757 15.376 144.781 15.256 144.781 15.16C144.781 14.984 144.741 14.848 144.661 14.752C144.581 14.64 144.461 14.528 144.301 14.416C144.141 14.288 144.029 14.176 143.965 14.08C143.901 13.984 143.893 13.856 143.941 13.696C144.037 13.328 144.541 13.008 145.453 12.736C146.365 12.448 147.317 12.304 148.309 12.304C149.237 12.304 149.917 12.48 150.349 12.832C150.781 13.184 150.997 13.664 150.997 14.272C150.997 14.64 150.941 14.992 150.829 15.328L149.317 20.32C149.253 20.496 149.221 20.664 149.221 20.824C149.221 21.048 149.285 21.216 149.413 21.328C149.541 21.44 149.709 21.496 149.917 21.496C150.221 21.496 150.469 21.408 150.661 21.232C150.853 21.056 151.045 20.76 151.237 20.344L152.701 15.52C152.749 15.376 152.773 15.256 152.773 15.16C152.773 14.984 152.733 14.848 152.653 14.752C152.573 14.64 152.461 14.528 152.317 14.416C152.157 14.288 152.045 14.176 151.981 14.08C151.917 13.984 151.909 13.856 151.957 13.696C152.037 13.328 152.533 13.008 153.445 12.736C154.357 12.448 155.309 12.304 156.301 12.304C157.229 12.304 157.909 12.48 158.341 12.832C158.789 13.184 159.013 13.656 159.013 14.248C159.013 14.552 158.949 14.912 158.821 15.328L156.877 21.688ZM171.338 12.304C172.234 12.304 172.946 12.576 173.474 13.12C174.018 13.664 174.29 14.336 174.29 15.136C174.29 15.44 174.258 15.72 174.194 15.976C174.034 16.632 173.73 17.136 173.282 17.488C172.834 17.84 172.298 18.016 171.674 18.016C171.066 18.016 170.602 17.872 170.282 17.584C169.978 17.296 169.706 16.912 169.466 16.432C169.338 16.16 169.218 15.96 169.106 15.832C168.994 15.704 168.866 15.64 168.722 15.64C168.562 15.64 168.418 15.704 168.29 15.832C168.178 15.96 168.074 16.184 167.978 16.504L166.13 22.504C166.098 22.584 166.082 22.704 166.082 22.864C166.082 23.072 166.138 23.248 166.25 23.392C166.378 23.52 166.546 23.648 166.754 23.776C166.946 23.904 167.074 24.008 167.138 24.088C167.202 24.168 167.226 24.272 167.21 24.4C167.178 24.608 167.058 24.76 166.85 24.856C166.658 24.952 166.322 25 165.842 25H159.698C159.282 25 158.986 24.936 158.81 24.808C158.618 24.664 158.546 24.48 158.594 24.256C158.658 24.064 158.826 23.896 159.098 23.752C159.338 23.624 159.538 23.472 159.698 23.296C159.858 23.12 159.994 22.84 160.106 22.456L162.242 15.52C162.274 15.44 162.29 15.328 162.29 15.184C162.29 15.008 162.25 14.872 162.17 14.776C162.106 14.68 161.994 14.56 161.834 14.416C161.674 14.288 161.562 14.176 161.498 14.08C161.434 13.984 161.426 13.856 161.474 13.696C161.57 13.328 162.074 13.008 162.986 12.736C163.898 12.448 164.85 12.304 165.842 12.304C166.498 12.304 167.042 12.456 167.474 12.76C167.906 13.048 168.186 13.464 168.314 14.008C169.082 12.872 170.09 12.304 171.338 12.304ZM184.66 12.616C184.964 12.616 185.196 12.68 185.356 12.808C185.532 12.936 185.62 13.112 185.62 13.336C185.62 13.4 185.604 13.512 185.572 13.672C185.364 14.376 184.884 14.728 184.132 14.728H182.74L180.94 20.656C180.86 20.896 180.82 21.144 180.82 21.4C180.82 21.688 180.9 21.888 181.06 22C181.22 22.112 181.444 22.168 181.732 22.168C181.988 22.168 182.308 22.136 182.692 22.072C182.884 22.024 183.052 22 183.196 22C183.308 22 183.388 22.04 183.436 22.12C183.5 22.184 183.532 22.272 183.532 22.384C183.548 22.704 183.308 23.096 182.812 23.56C182.332 24.008 181.676 24.4 180.844 24.736C180.012 25.056 179.092 25.216 178.084 25.216C176.996 25.216 176.124 24.968 175.468 24.472C174.812 23.976 174.484 23.296 174.484 22.432C174.484 22.032 174.548 21.648 174.676 21.28L176.212 16.528C176.292 16.256 176.332 16.04 176.332 15.88C176.332 15.56 176.252 15.288 176.092 15.064C175.948 14.84 175.74 14.608 175.468 14.368C175.228 14.144 175.06 13.96 174.964 13.816C174.868 13.656 174.844 13.472 174.892 13.264C174.956 13.056 175.092 12.896 175.3 12.784C175.508 12.672 175.836 12.616 176.284 12.616H177.628L179.14 11.104C179.668 10.576 180.148 10.208 180.58 10C181.028 9.792 181.604 9.688 182.308 9.688C183.316 9.688 183.82 10.072 183.82 10.84C183.82 11.08 183.788 11.304 183.724 11.512L183.388 12.616H184.66ZM192.381 7.264C193.309 7.264 193.989 7.44 194.421 7.792C194.869 8.144 195.093 8.624 195.093 9.232C195.093 9.584 195.037 9.928 194.925 10.264L191.157 22.504C191.109 22.696 191.085 22.864 191.085 23.008C191.085 23.216 191.125 23.384 191.205 23.512C191.285 23.624 191.397 23.736 191.541 23.848C191.653 23.96 191.733 24.056 191.781 24.136C191.829 24.2 191.837 24.288 191.805 24.4C191.725 24.608 191.565 24.76 191.325 24.856C191.085 24.952 190.717 25 190.221 25H184.749C184.333 25 184.029 24.936 183.837 24.808C183.645 24.664 183.581 24.48 183.645 24.256C183.709 24.064 183.877 23.896 184.149 23.752C184.389 23.624 184.589 23.472 184.749 23.296C184.909 23.12 185.045 22.84 185.157 22.456L188.805 10.48C188.853 10.336 188.877 10.216 188.877 10.12C188.877 9.944 188.829 9.8 188.733 9.688C188.653 9.576 188.541 9.464 188.397 9.352C188.237 9.224 188.117 9.112 188.037 9.016C187.973 8.92 187.965 8.792 188.013 8.632C188.109 8.264 188.613 7.944 189.525 7.672C190.437 7.4 191.389 7.264 192.381 7.264ZM202.13 12.184C204.162 12.184 205.634 12.512 206.546 13.168C207.458 13.808 207.914 14.632 207.914 15.64C207.914 15.944 207.882 16.224 207.818 16.48C207.578 17.536 206.906 18.296 205.802 18.76C204.714 19.208 203.426 19.432 201.938 19.432C201.186 19.432 200.482 19.384 199.826 19.288C199.81 20.12 200.034 20.704 200.498 21.04C200.962 21.376 201.61 21.544 202.442 21.544C202.826 21.544 203.194 21.504 203.546 21.424C203.898 21.328 204.346 21.192 204.89 21.016C205.338 20.856 205.642 20.776 205.802 20.776C205.978 20.776 206.066 20.88 206.066 21.088C206.082 21.648 205.874 22.24 205.442 22.864C205.01 23.472 204.37 23.992 203.522 24.424C202.674 24.856 201.65 25.072 200.45 25.072C198.674 25.072 197.218 24.624 196.082 23.728C194.946 22.832 194.378 21.528 194.378 19.816C194.378 19.336 194.442 18.776 194.57 18.136C194.97 16.168 195.842 14.688 197.186 13.696C198.546 12.688 200.194 12.184 202.13 12.184ZM199.994 17.848C200.058 17.864 200.146 17.872 200.258 17.872C200.93 17.872 201.442 17.56 201.794 16.936C202.146 16.312 202.314 15.616 202.298 14.848C202.282 14.4 202.154 14.176 201.914 14.176C201.738 14.176 201.53 14.32 201.29 14.608C201.05 14.88 200.81 15.296 200.57 15.856C200.346 16.416 200.154 17.08 199.994 17.848ZM220.144 12.208C221.328 12.208 222.272 12.632 222.976 13.48C223.696 14.328 224.056 15.448 224.056 16.84C224.056 17.56 223.968 18.264 223.792 18.952C223.28 21.016 222.4 22.576 221.152 23.632C219.92 24.688 218.496 25.216 216.88 25.216C215.968 25.216 215.176 25.064 214.504 24.76C213.848 24.44 213.32 23.992 212.92 23.416L212.056 24.16C211.72 24.448 211.392 24.664 211.072 24.808C210.752 24.936 210.384 25 209.968 25H208.912C208.512 25 208.2 24.92 207.976 24.76C207.768 24.584 207.664 24.336 207.664 24.016C207.664 23.872 207.688 23.704 207.736 23.512L211.744 10.48C211.792 10.336 211.816 10.216 211.816 10.12C211.816 9.848 211.648 9.592 211.312 9.352C211.152 9.208 211.04 9.096 210.976 9.016C210.912 8.92 210.904 8.8 210.952 8.656C211.064 8.288 211.568 7.968 212.464 7.696C213.376 7.408 214.328 7.264 215.32 7.264C216.248 7.264 216.928 7.448 217.36 7.816C217.808 8.168 218.032 8.648 218.032 9.256C218.032 9.592 217.976 9.928 217.864 10.264L216.856 13.528C217.784 12.648 218.88 12.208 220.144 12.208ZM217.432 18.808C217.752 17.72 217.912 16.84 217.912 16.168C217.912 15.432 217.696 15.064 217.264 15.064C216.88 15.064 216.52 15.264 216.184 15.664L214.624 20.752L214.48 21.208C214.4 21.448 214.36 21.696 214.36 21.952C214.36 22.512 214.624 22.792 215.152 22.792C215.536 22.792 215.904 22.512 216.256 21.952C216.608 21.392 217 20.344 217.432 18.808ZM233.428 12.304C235.268 12.304 236.74 12.648 237.844 13.336C238.948 14.008 239.5 15.04 239.5 16.432C239.5 16.96 239.404 17.56 239.212 18.232L238.228 21.544C238.212 21.608 238.204 21.688 238.204 21.784C238.204 22.04 238.308 22.168 238.516 22.168C238.708 22.168 238.868 22.088 238.996 21.928C239.14 21.752 239.236 21.664 239.284 21.664C239.364 21.664 239.428 21.72 239.476 21.832C239.54 21.944 239.572 22.072 239.572 22.216C239.588 22.648 239.42 23.088 239.068 23.536C238.732 23.984 238.276 24.352 237.7 24.64C237.124 24.928 236.492 25.072 235.804 25.072C234.972 25.072 234.26 24.92 233.668 24.616C233.076 24.312 232.668 23.864 232.444 23.272C231.964 23.848 231.396 24.296 230.74 24.616C230.084 24.92 229.38 25.072 228.628 25.072C227.78 25.072 227.068 24.912 226.492 24.592C225.916 24.256 225.484 23.832 225.196 23.32C224.924 22.792 224.788 22.24 224.788 21.664C224.788 21.408 224.812 21.16 224.86 20.92C225.116 19.816 225.668 18.984 226.516 18.424C227.38 17.864 228.404 17.584 229.588 17.584C230.916 17.584 232.22 17.792 233.5 18.208L234.1 16.624C234.308 15.952 234.412 15.432 234.412 15.064C234.396 14.68 234.268 14.392 234.028 14.2C233.788 14.008 233.42 13.912 232.924 13.912C233.02 14.168 233.068 14.432 233.068 14.704C233.068 15.296 232.844 15.808 232.396 16.24C231.948 16.672 231.308 16.888 230.476 16.888C229.692 16.888 229.076 16.72 228.628 16.384C228.196 16.032 227.98 15.6 227.98 15.088C227.98 14.288 228.428 13.624 229.324 13.096C230.22 12.568 231.588 12.304 233.428 12.304ZM232.084 19.576C231.636 19.576 231.268 19.752 230.98 20.104C230.708 20.44 230.572 20.808 230.572 21.208C230.572 21.464 230.628 21.672 230.74 21.832C230.868 21.992 231.044 22.072 231.268 22.072C231.476 22.072 231.7 21.992 231.94 21.832C232.196 21.656 232.38 21.4 232.492 21.064L232.996 19.648C232.724 19.6 232.42 19.576 232.084 19.576ZM248.939 12.088C250.267 12.088 251.411 12.208 252.371 12.448C253.347 12.688 254.091 13.024 254.603 13.456C255.131 13.888 255.395 14.376 255.395 14.92C255.395 15.48 255.171 15.936 254.723 16.288C254.291 16.64 253.683 16.816 252.899 16.816C252.099 16.816 251.419 16.616 250.859 16.216C250.315 15.816 250.043 15.312 250.043 14.704C250.043 14.496 250.075 14.296 250.139 14.104C249.851 14.024 249.595 13.984 249.371 13.984C248.971 13.984 248.635 14.08 248.363 14.272C248.107 14.464 247.987 14.736 248.003 15.088C248.003 15.504 248.211 15.856 248.627 16.144C249.043 16.432 249.715 16.792 250.643 17.224C251.443 17.576 252.099 17.904 252.611 18.208C253.139 18.496 253.579 18.864 253.931 19.312C254.299 19.76 254.483 20.288 254.483 20.896C254.483 21.024 254.451 21.264 254.387 21.616C254.131 22.688 253.419 23.536 252.251 24.16C251.083 24.784 249.547 25.096 247.643 25.096C245.499 25.096 243.795 24.808 242.531 24.232C241.283 23.656 240.659 22.864 240.659 21.856C240.659 21.168 240.867 20.648 241.283 20.296C241.699 19.944 242.251 19.768 242.939 19.768C243.739 19.768 244.419 20.016 244.979 20.512C245.555 21.008 245.843 21.64 245.843 22.408C245.843 22.616 245.819 22.832 245.771 23.056C246.155 23.152 246.523 23.2 246.875 23.2C247.291 23.2 247.635 23.088 247.907 22.864C248.179 22.64 248.315 22.328 248.315 21.928C248.299 21.56 248.115 21.248 247.763 20.992C247.411 20.72 246.851 20.4 246.083 20.032C245.363 19.696 244.771 19.384 244.307 19.096C243.843 18.792 243.443 18.416 243.107 17.968C242.787 17.52 242.627 16.992 242.627 16.384C242.627 15.072 243.171 14.032 244.259 13.264C245.363 12.48 246.923 12.088 248.939 12.088ZM263.886 12.184C265.918 12.184 267.39 12.512 268.302 13.168C269.214 13.808 269.67 14.632 269.67 15.64C269.67 15.944 269.638 16.224 269.574 16.48C269.334 17.536 268.662 18.296 267.558 18.76C266.47 19.208 265.182 19.432 263.694 19.432C262.942 19.432 262.238 19.384 261.582 19.288C261.566 20.12 261.79 20.704 262.254 21.04C262.718 21.376 263.366 21.544 264.198 21.544C264.582 21.544 264.95 21.504 265.302 21.424C265.654 21.328 266.102 21.192 266.646 21.016C267.094 20.856 267.398 20.776 267.558 20.776C267.734 20.776 267.822 20.88 267.822 21.088C267.838 21.648 267.63 22.24 267.198 22.864C266.766 23.472 266.126 23.992 265.278 24.424C264.43 24.856 263.406 25.072 262.206 25.072C260.43 25.072 258.974 24.624 257.838 23.728C256.702 22.832 256.134 21.528 256.134 19.816C256.134 19.336 256.198 18.776 256.326 18.136C256.726 16.168 257.598 14.688 258.942 13.696C260.302 12.688 261.95 12.184 263.886 12.184ZM261.75 17.848C261.814 17.864 261.902 17.872 262.014 17.872C262.686 17.872 263.198 17.56 263.55 16.936C263.902 16.312 264.07 15.616 264.054 14.848C264.038 14.4 263.91 14.176 263.67 14.176C263.494 14.176 263.286 14.32 263.046 14.608C262.806 14.88 262.566 15.296 262.326 15.856C262.102 16.416 261.91 17.08 261.75 17.848Z" fill="#F0E7E2"/>
</svg>
